<?xml version="1.0" standalone="no"?><!DOCTYPE svg PUBLIC "-//W3C//DTD SVG 1.1//EN" "http://www.w3.org/Graphics/SVG/1.1/DTD/svg11.dtd"><svg class="icon" width="200px" height="200.00px" viewBox="0 0 1024 1024" version="1.1" xmlns="http://www.w3.org/2000/svg"><path d="M282.666667 197.162667a27.733333 27.733333 0 0 1 22.528-11.52h413.568c8.96 0 17.322667 4.266667 22.528 11.52l91.904 128a27.733333 27.733333 0 0 1 5.205333 16.213333v512a27.733333 27.733333 0 0 1-27.733333 27.733333H213.333333a27.733333 27.733333 0 0 1-27.733333-27.733333V341.333333a27.733333 27.733333 0 0 1 5.205333-16.213333l91.861334-128z m36.778666 43.946666l-52.053333 72.533334h489.216l-52.053333-72.533334H319.402667z m463.488 128H241.066667v456.533334h541.866666V369.066667z m-165.973333 165.973334a27.733333 27.733333 0 0 1 0 39.210666l-106.666667 106.666667a27.733333 27.733333 0 0 1-39.253333 0l-64-64a27.733333 27.733333 0 1 1 39.253333-39.253333l44.373334 44.373333 87.04-87.04a27.733333 27.733333 0 0 1 39.253333 0z" /></svg>